<svg width="23" height="23" viewBox="0 0 23 23" fill="none" xmlns="http://www.w3.org/2000/svg">
<path d="M14.0875 0.299L13.9955 0.253L13.984 0.276C13.179 0.1035 12.351 0 11.5 0C5.152 0 0 5.152 0 11.5C0 17.848 5.152 23 11.5 23C17.848 23 23 17.848 23 11.5C23 6.0375 19.1935 1.472 14.0875 0.299ZM20.0215 8.05H10.833L13.9495 2.645C16.7095 3.404 18.952 5.428 20.0215 8.05ZM12.765 2.392L9.5105 8.05L8.188 10.35L5.06 4.945C6.77439 3.24936 9.08871 2.29883 11.5 2.3C11.9255 2.3 12.351 2.3345 12.765 2.392ZM4.255 5.8535L7.521 11.5L8.8435 13.8H2.599C2.415 13.064 2.3 12.2935 2.3 11.5C2.3 9.3725 3.036 7.4175 4.255 5.8535ZM2.9785 14.95H12.1555L9.039 20.355C7.68383 19.9752 6.43335 19.2909 5.383 18.3541C4.33266 17.4174 3.51023 16.2531 2.9785 14.95ZM10.235 20.5965L14.8235 12.65L17.9515 18.055C16.2313 19.749 13.9142 20.699 11.5 20.7C11.063 20.7 10.649 20.654 10.235 20.5965ZM18.745 17.1465L14.145 9.2H20.3895C20.585 9.936 20.7 10.7065 20.7 11.5C20.7 13.6275 19.964 15.5825 18.745 17.1465Z" fill="#8B909C"/>
</svg>
