<svg width="25" height="29" viewBox="0 0 25 29" fill="none" xmlns="http://www.w3.org/2000/svg">
<path d="M22.7083 28.0833H2.29159C1.48617 28.0833 0.833252 27.4304 0.833252 26.6249V12.6454C0.833252 12.2586 0.987034 11.8877 1.26054 11.6143L11.4689 1.40598C11.7424 1.13214 12.1136 0.978271 12.5006 0.978271C12.8877 0.978271 13.2589 1.13214 13.5324 1.40598L23.7408 11.6143C24.0145 11.8874 24.1679 12.2586 24.1666 12.6454V26.6249C24.1666 27.4304 23.5137 28.0833 22.7083 28.0833ZM9.58325 17.8749H15.4166V25.1666H21.2499V13.2491L12.4999 4.49911L3.74992 13.2491V25.1666H9.58325V17.8749Z" fill="#8B909C"/>
</svg>
